<svg width="32" height="32" viewBox="0 0 32 32" fill="none" xmlns="http://www.w3.org/2000/svg">
<path d="M16 3.16602C19.4024 3.16986 22.6644 4.52297 25.0703 6.92871C27.4012 9.25959 28.7441 12.3944 28.8291 15.6816L28.834 16C28.8339 18.5379 28.0808 21.0187 26.6709 23.1289C25.2608 25.2393 23.2561 26.8841 20.9111 27.8555C18.5663 28.8267 15.9863 29.081 13.4971 28.5859C11.0077 28.0908 8.72053 26.8689 6.92578 25.0742C5.13101 23.2794 3.90924 20.9923 3.41406 18.5029C2.91889 16.0135 3.17223 13.4329 4.14355 11.0879C5.11483 8.74314 6.75994 6.73919 8.87012 5.3291C10.8487 4.00705 13.1536 3.26262 15.5254 3.1748L16 3.16602ZM20.2734 5.68262C18.2332 4.83757 15.9882 4.61615 13.8223 5.04688C11.6561 5.47774 9.66618 6.54183 8.10449 8.10352C6.54281 9.6652 5.47872 11.6552 5.04785 13.8213C4.61713 15.9872 4.83854 18.2322 5.68359 20.2725C6.52877 22.3129 7.96053 24.0572 9.79688 25.2842C11.6331 26.511 13.7917 27.1659 16 27.166H16.001C18.9613 27.1626 21.7993 25.9849 23.8926 23.8916C25.9859 21.7983 27.1636 18.9604 27.167 16V15.999C27.1669 13.7907 26.512 11.6321 25.2852 9.7959C24.0581 7.95955 22.3139 6.5278 20.2734 5.68262ZM16 8.49902C16.221 8.49902 16.4336 8.58689 16.5898 8.74316C16.7461 8.89944 16.834 9.11199 16.834 9.33301V15.5186L17.084 15.6631L19.8809 17.2773H19.8818C19.9766 17.332 20.0593 17.4054 20.126 17.4922C20.1926 17.5789 20.2421 17.6776 20.2705 17.7832C20.2989 17.889 20.3063 17.9998 20.292 18.1084C20.2777 18.2168 20.2421 18.3213 20.1875 18.416C20.1328 18.5108 20.0595 18.5945 19.9727 18.6611C19.8858 18.7278 19.7864 18.7764 19.6807 18.8047C19.575 18.833 19.4649 18.8404 19.3564 18.8262C19.2751 18.8154 19.1956 18.7925 19.1211 18.7588L19.0479 18.7217L15.584 16.7217C15.4573 16.6485 15.3515 16.5427 15.2783 16.416C15.2053 16.2894 15.167 16.1452 15.167 15.999V9.33301C15.167 9.11199 15.2549 8.89944 15.4111 8.74316C15.5673 8.58706 15.7792 8.49911 16 8.49902Z" fill="#2E3D5B" stroke="#151E2F"/>
</svg>
