<svg width="16" height="16" viewBox="0 0 16 16" fill="none" xmlns="http://www.w3.org/2000/svg">
<path d="M7.39967 15.1673H4.59967C1.99301 15.1673 0.833008 14.0073 0.833008 11.4007V8.60065C0.833008 5.99398 1.99301 4.83398 4.59967 4.83398H7.39967C10.0063 4.83398 11.1663 5.99398 11.1663 8.60065V11.4007C11.1663 14.0073 10.0063 15.1673 7.39967 15.1673ZM4.59967 5.83398C2.53301 5.83398 1.83301 6.53398 1.83301 8.60065V11.4007C1.83301 13.4673 2.53301 14.1673 4.59967 14.1673H7.39967C9.46634 14.1673 10.1663 13.4673 10.1663 11.4007V8.60065C10.1663 6.53398 9.46634 5.83398 7.39967 5.83398H4.59967V5.83398Z" fill="#151E2F"/>
<path d="M11.3997 11.1673H10.6663C10.393 11.1673 10.1663 10.9407 10.1663 10.6673V8.60065C10.1663 6.53398 9.46634 5.83398 7.39967 5.83398H5.33301C5.05967 5.83398 4.83301 5.60732 4.83301 5.33398V4.60065C4.83301 1.99398 5.99301 0.833984 8.59967 0.833984H11.3997C14.0063 0.833984 15.1663 1.99398 15.1663 4.60065V7.40065C15.1663 10.0073 14.0063 11.1673 11.3997 11.1673ZM11.1663 10.1673H11.3997C13.4663 10.1673 14.1663 9.46732 14.1663 7.40065V4.60065C14.1663 2.53398 13.4663 1.83398 11.3997 1.83398H8.59967C6.53301 1.83398 5.83301 2.53398 5.83301 4.60065V4.83398H7.39967C10.0063 4.83398 11.1663 5.99398 11.1663 8.60065V10.1673Z" fill="#151E2F"/>
</svg>
