<svg width="301" height="71" viewBox="0 0 301 71" fill="none" xmlns="http://www.w3.org/2000/svg">
<g clip-path="url(#clip0_11776_16326)">
<path d="M32.9599 14.4123H12.5834V29.6063H33.3173C35.5337 29.6063 37.3211 28.8253 38.8226 27.1923C40.324 25.6303 41.039 23.6423 41.039 21.3703C41.039 19.3113 40.2525 17.6783 38.7511 16.3293C37.2496 15.1223 35.3192 14.4123 32.9599 14.4123ZM33.3173 41.5343H12.5119V56.9413H33.8893C36.1772 56.9413 38.1076 56.2313 39.6805 54.8823C41.2534 53.5333 41.9684 51.8293 41.9684 49.7703C41.9684 47.4273 41.1105 45.4393 39.466 43.8773C37.8216 42.3153 35.8197 41.5343 33.3173 41.5343ZM35.1048 69.1533H0V2.20031H34.1038C39.6805 2.20031 44.3278 3.83331 48.0456 7.09931C51.7634 10.3653 53.6223 14.5543 53.6223 19.5953C53.6223 22.9323 52.8359 25.9853 51.3344 28.7543C49.7615 31.5943 47.6881 33.7243 44.9713 35.2863C47.9741 36.8483 50.3335 38.9783 52.0494 41.8183C53.7653 44.6583 54.6233 47.8533 54.6233 51.3323C54.6233 56.3733 52.7644 60.5623 49.0466 64.0413C45.3287 67.5203 40.61 69.1533 35.1048 69.1533ZM63.7748 12.9213C62.3449 11.4303 61.6299 9.65532 61.6299 7.52532C61.6299 5.39531 62.3449 3.62031 63.7748 2.20031C65.2048 0.780313 67.0637 0.0703125 69.2086 0.0703125C71.3534 0.0703125 73.1409 0.780313 74.6423 2.20031C76.0722 3.62031 76.7872 5.39531 76.7872 7.52532C76.7872 9.65532 76.0722 11.4303 74.6423 12.9213C73.2124 14.4123 71.3534 15.1223 69.2086 15.1223C67.0637 15.1223 65.2762 14.4123 63.7748 12.9213ZM62.9884 69.1533V21.2993H75.4287V69.1533H62.9884ZM110.962 57.5803H118.041V69.1533H109.175C103.67 69.1533 99.3801 67.8043 96.3057 65.1063C93.1599 62.4083 91.5869 58.7163 91.5869 54.0303V32.8013H83.0074V21.2993H91.5154V5.32431H104.099V21.2993H117.969V32.8013H104.099V51.1903C104.099 53.1783 104.671 54.7403 105.886 55.8763C107.03 57.0123 108.746 57.5803 110.962 57.5803ZM266.396 21.3703H279.551L265.895 69.2243H248.951L239.37 37.4873L230.505 69.2243H213.56L199.475 21.3703H212.487L222.568 57.4383L233.078 21.3703H245.805L256.601 57.4383L266.396 21.3703ZM287.988 12.9213C286.558 11.4303 285.843 9.65532 285.843 7.52532C285.843 5.39531 286.558 3.62031 287.988 2.20031C289.418 0.780313 291.276 0.0703125 293.421 0.0703125C295.566 0.0703125 297.354 0.780313 298.855 2.20031C300.357 3.62031 301 5.39531 301 7.52532C301 9.65532 300.285 11.4303 298.855 12.9213C297.425 14.4123 295.566 15.1223 293.421 15.1223C291.276 15.1223 289.418 14.4123 287.988 12.9213ZM287.201 69.1533V21.2993H299.642V69.1533H287.201Z" fill="#1A1A1A"/>
<path d="M160.152 71.0007C140.419 71.0007 124.404 55.0967 124.404 35.5007C124.404 15.9047 140.419 0.000679016 160.152 0.000679016C164.084 0.000679016 167.302 3.19568 167.302 7.10068C167.302 11.0057 164.084 14.2007 160.152 14.2007C148.284 14.2007 136.558 24.2117 136.558 39.7607C136.558 71.7107 160.152 71.0007 160.152 71.0007Z" fill="#00FFF7"/>
<path d="M160.152 0C179.885 0 195.9 15.904 195.9 35.5C195.9 55.096 179.885 71 160.152 71C156.22 71 153.003 67.805 153.003 63.9C153.003 59.995 156.22 56.8 160.152 56.8C172.021 56.8 183.031 47.499 183.031 31.95C183.031 0 160.152 0 160.152 0Z" fill="#002BFF"/>
</g>
<defs>
<clipPath id="clip0_11776_16326">
<rect width="301" height="71" fill="white"/>
</clipPath>
</defs>
</svg>
