<svg width="244" height="181" viewBox="0 0 244 181" fill="none" xmlns="http://www.w3.org/2000/svg">
<g clip-path="url(#clip0_10164_30406)">
<path d="M143.955 62.2225L157.77 48.1162L143.955 34.0098L110.647 0H0L88.6312 90.4997L0 180.999H110.647L157.77 132.883L116.261 90.4997L143.955 62.2225ZM130.14 132.883L102.572 161.031H47.2489L102.509 104.606L130.14 132.883ZM47.2489 19.9679H102.572L130.14 48.1162L102.446 76.3933L47.2489 19.9679Z" fill="url(#paint0_linear_10164_30406)"/>
<path opacity="0.35" d="M1.51416 180.356L89.5145 90.5001L1.51416 0.644531H110.395L156.887 48.1166L115.378 90.5001L156.887 132.884L110.395 180.356H1.51416ZM45.7351 161.676H102.825L131.023 132.884L102.446 103.705L45.7351 161.676ZM102.446 77.2955L131.023 48.1166L102.825 19.3242H45.7351L102.446 77.2955Z" fill="url(#paint1_linear_10164_30406)"/>
<path d="M189.879 41.0957L141.432 90.5646L189.879 140.033L238.327 90.5646L189.879 41.0957ZM169.125 90.5002L189.879 69.3084L210.633 90.5002L189.879 111.692L169.125 90.5002Z" fill="url(#paint2_linear_10164_30406)"/>
<path opacity="0.35" d="M142.314 90.4988L189.879 41.9961L237.38 90.4988L189.879 139.066L142.314 90.4988ZM168.241 90.4988L189.879 112.592L211.516 90.4988L189.879 68.4053L168.241 90.4988Z" fill="url(#paint3_linear_10164_30406)"/>
<path opacity="0.1" d="M124.651 81.997L110.836 67.8906L102.509 76.3931L116.324 90.4994L130.139 76.3931L124.651 81.997Z" fill="#2A44A0"/>
<path opacity="0.1" d="M80.2412 99.1958L94.0563 113.173L102.383 104.671L88.5681 90.6934L74.6899 104.671L74.753 104.735L80.2412 99.1958Z" fill="#2A44A0"/>
</g>
<defs>
<linearGradient id="paint0_linear_10164_30406" x1="0" y1="90.4997" x2="157.799" y2="90.4997" gradientUnits="userSpaceOnUse">
<stop stop-color="white"/>
<stop offset="0.1339" stop-color="#F3F6FD"/>
<stop offset="0.4106" stop-color="#E0E9FB"/>
<stop offset="0.6957" stop-color="#D5E1F9"/>
<stop offset="0.9994" stop-color="#D1DEF9"/>
</linearGradient>
<linearGradient id="paint1_linear_10164_30406" x1="1.52293" y1="90.5001" x2="156.907" y2="90.5001" gradientUnits="userSpaceOnUse">
<stop stop-color="white"/>
<stop offset="0.3911" stop-color="white" stop-opacity="0"/>
</linearGradient>
<linearGradient id="paint2_linear_10164_30406" x1="141.453" y1="90.5165" x2="238.287" y2="90.5165" gradientUnits="userSpaceOnUse">
<stop stop-color="white"/>
<stop offset="0.1339" stop-color="#F3F6FD"/>
<stop offset="0.4106" stop-color="#E0E9FB"/>
<stop offset="0.6957" stop-color="#D5E1F9"/>
<stop offset="0.9994" stop-color="#D1DEF9"/>
</linearGradient>
<linearGradient id="paint3_linear_10164_30406" x1="142.344" y1="90.5151" x2="237.395" y2="90.5151" gradientUnits="userSpaceOnUse">
<stop stop-color="white"/>
<stop offset="0.3911" stop-color="white" stop-opacity="0"/>
</linearGradient>
<clipPath id="clip0_10164_30406">
<rect width="243.286" height="180.999" fill="white"/>
</clipPath>
</defs>
</svg>
