<svg width="32" height="32" viewBox="0 0 32 32" fill="none" xmlns="http://www.w3.org/2000/svg">
<path d="M29.3337 10.0665C29.3337 10.9465 28.6137 11.6665 27.7337 11.6665H4.26699C3.38699 11.6665 2.66699 10.9465 2.66699 10.0665V10.0532C2.66699 6.99987 5.13366 4.5332 8.18699 4.5332H23.8003C26.8537 4.5332 29.3337 7.0132 29.3337 10.0665Z" fill="#FF9B29"/>
<path d="M2.66699 15.266V21.946C2.66699 24.9993 5.13366 27.466 8.18699 27.466H23.8003C26.8537 27.466 29.3337 24.986 29.3337 21.9327V15.266C29.3337 14.386 28.6137 13.666 27.7337 13.666H4.26699C3.38699 13.666 2.66699 14.386 2.66699 15.266ZM10.667 22.9993H8.00033C7.45366 22.9993 7.00033 22.546 7.00033 21.9993C7.00033 21.4527 7.45366 20.9993 8.00033 20.9993H10.667C11.2137 20.9993 11.667 21.4527 11.667 21.9993C11.667 22.546 11.2137 22.9993 10.667 22.9993ZM19.3337 22.9993H14.0003C13.4537 22.9993 13.0003 22.546 13.0003 21.9993C13.0003 21.4527 13.4537 20.9993 14.0003 20.9993H19.3337C19.8803 20.9993 20.3337 21.4527 20.3337 21.9993C20.3337 22.546 19.8803 22.9993 19.3337 22.9993Z" fill="#FF9B29"/>
</svg>
