<svg width="32" height="32" viewBox="0 0 32 32" fill="none" xmlns="http://www.w3.org/2000/svg">
<path d="M21.587 2.66602H10.4137C5.56033 2.66602 2.66699 5.55935 2.66699 10.4127V21.5727C2.66699 26.4393 5.56033 29.3327 10.4137 29.3327H21.5737C26.427 29.3327 29.3203 26.4393 29.3203 21.586V10.4127C29.3337 5.55935 26.4403 2.66602 21.587 2.66602ZM21.3337 16.9993H10.667C10.1203 16.9993 9.66699 16.546 9.66699 15.9993C9.66699 15.4527 10.1203 14.9993 10.667 14.9993H21.3337C21.8803 14.9993 22.3337 15.4527 22.3337 15.9993C22.3337 16.546 21.8803 16.9993 21.3337 16.9993Z" fill="#1D5DE5"/>
</svg>
