<svg width="48" height="48" viewBox="0 0 48 48" fill="none" xmlns="http://www.w3.org/2000/svg">
<path d="M20.9803 4.45914L11.0003 8.21914C8.70031 9.07914 6.82031 11.7991 6.82031 14.2391V29.0991C6.82031 31.4591 8.38031 34.5591 10.2803 35.9791L18.8803 42.3991C21.7003 44.5191 26.3403 44.5191 29.1603 42.3991L37.7603 35.9791C39.6603 34.5591 41.2203 31.4591 41.2203 29.0991V14.2391C41.2203 11.7791 39.3403 9.05914 37.0403 8.19914L27.0603 4.45914C25.3603 3.83914 22.6403 3.83914 20.9803 4.45914Z" stroke="white" stroke-width="2" stroke-linecap="round" stroke-linejoin="round"/>
<path d="M24 25C26.2091 25 28 23.2091 28 21C28 18.7909 26.2091 17 24 17C21.7909 17 20 18.7909 20 21C20 23.2091 21.7909 25 24 25Z" stroke="white" stroke-width="2" stroke-miterlimit="10" stroke-linecap="round" stroke-linejoin="round"/>
<path d="M24 25V31" stroke="white" stroke-width="2" stroke-miterlimit="10" stroke-linecap="round" stroke-linejoin="round"/>
</svg>
