<svg width="16" height="16" viewBox="0 0 16 16" fill="none" xmlns="http://www.w3.org/2000/svg">
<path d="M11.3333 10.6674H6.27333L11.8067 5.14077C11.9322 5.01524 12.0027 4.84498 12.0027 4.66744C12.0027 4.48991 11.9322 4.31964 11.8067 4.19411C11.6811 4.06857 11.5109 3.99805 11.3333 3.99805C11.1558 3.99805 10.9855 4.06857 10.86 4.19411L5.33333 9.72744V4.66744C5.33333 4.49063 5.2631 4.32106 5.13807 4.19604C5.01305 4.07101 4.84348 4.00077 4.66667 4.00077C4.48986 4.00077 4.32029 4.07101 4.19526 4.19604C4.07024 4.32106 4 4.49063 4 4.66744V11.3341C4.00105 11.4212 4.01917 11.5073 4.05333 11.5874C4.12098 11.7503 4.25043 11.8798 4.41333 11.9474C4.49348 11.9816 4.57955 11.9997 4.66667 12.0008H11.3333C11.5101 12.0008 11.6797 11.9305 11.8047 11.8055C11.9298 11.6805 12 11.5109 12 11.3341C12 11.1573 11.9298 10.9877 11.8047 10.8627C11.6797 10.7377 11.5101 10.6674 11.3333 10.6674Z" fill="white"/>
</svg>
