<svg width="14" height="14" viewBox="0 0 14 14" fill="none" xmlns="http://www.w3.org/2000/svg">
<path d="M8.66667 6H7.33334V3.33333C7.33334 3.15652 7.2631 2.98695 7.13807 2.86193C7.01305 2.7369 6.84348 2.66667 6.66667 2.66667C6.48986 2.66667 6.32029 2.7369 6.19527 2.86193C6.07024 2.98695 6 3.15652 6 3.33333V6.66667C6 6.84348 6.07024 7.01305 6.19527 7.13807C6.32029 7.26309 6.48986 7.33333 6.66667 7.33333H8.66667C8.84348 7.33333 9.01305 7.26309 9.13807 7.13807C9.2631 7.01305 9.33334 6.84348 9.33334 6.66667C9.33334 6.48986 9.2631 6.32029 9.13807 6.19526C9.01305 6.07024 8.84348 6 8.66667 6ZM6.66667 0C5.34813 0 4.0592 0.390993 2.96287 1.12354C1.86654 1.85608 1.01206 2.89727 0.507473 4.11544C0.00288856 5.33362 -0.129134 6.67406 0.128101 7.96727C0.385336 9.26048 1.02027 10.4484 1.95262 11.3807C2.88497 12.3131 4.07286 12.948 5.36607 13.2052C6.65927 13.4625 7.99972 13.3304 9.21789 12.8259C10.4361 12.3213 11.4773 11.4668 12.2098 10.3705C12.9423 9.27414 13.3333 7.98521 13.3333 6.66667C13.3314 4.89916 12.6284 3.20461 11.3785 1.95479C10.1287 0.704976 8.43418 0.00196572 6.66667 0ZM6.66667 12C5.61184 12 4.58069 11.6872 3.70363 11.1012C2.82657 10.5151 2.14298 9.68218 1.73931 8.70764C1.33564 7.73311 1.23003 6.66075 1.43582 5.62618C1.6416 4.59162 2.14955 3.64131 2.89543 2.89543C3.64131 2.14955 4.59162 1.6416 5.62619 1.43581C6.66075 1.23002 7.73311 1.33564 8.70765 1.73931C9.68219 2.14298 10.5151 2.82656 11.1012 3.70363C11.6872 4.58069 12 5.61183 12 6.66667C11.9984 8.08066 11.436 9.43627 10.4361 10.4361C9.43628 11.436 8.08066 11.9984 6.66667 12Z" fill="#FF9B29"/>
</svg>
