<svg width="15" height="14" viewBox="0 0 15 14" fill="none" xmlns="http://www.w3.org/2000/svg">
<path d="M14.6428 7.88175C14.6402 7.84254 14.6339 7.80367 14.624 7.76563L13.0876 3.67423C13.3672 3.49337 13.5971 3.24545 13.7565 2.95304C13.9159 2.66063 13.9996 2.33301 14 2C14 1.82319 13.9298 1.65362 13.8047 1.5286C13.6797 1.40357 13.5101 1.33333 13.3333 1.33333C13.1565 1.33333 12.987 1.40357 12.8619 1.5286C12.7369 1.65362 12.6667 1.82319 12.6667 2C12.6666 2.14856 12.617 2.29286 12.5256 2.40999C12.4342 2.52712 12.3063 2.61039 12.1622 2.64658C12.0181 2.68277 11.8661 2.66981 11.7302 2.60977C11.5943 2.54972 11.4824 2.44601 11.4121 2.31511C11.241 2.01145 10.9909 1.75981 10.6883 1.58694C10.3856 1.41408 10.0418 1.32643 9.69333 1.33333H8V0.666667C8 0.489856 7.92976 0.320286 7.80474 0.195262C7.67971 0.0702379 7.51014 0 7.33333 0C7.15652 0 6.98695 0.0702379 6.86193 0.195262C6.7369 0.320286 6.66667 0.489856 6.66667 0.666667V1.33333H4.97333C4.62487 1.32643 4.28105 1.41408 3.97841 1.58694C3.67578 1.75981 3.42563 2.01145 3.25456 2.31511C3.18431 2.44601 3.07236 2.54972 2.93648 2.60977C2.80059 2.66981 2.64854 2.68277 2.50445 2.64658C2.36036 2.61039 2.23248 2.52712 2.1411 2.40999C2.04971 2.29286 2.00005 2.14856 2 2C2 1.82319 1.92976 1.65362 1.80474 1.5286C1.67971 1.40357 1.51014 1.33333 1.33333 1.33333C1.15652 1.33333 0.986953 1.40357 0.861929 1.5286C0.736905 1.65362 0.666667 1.82319 0.666667 2C0.667103 2.33301 0.750809 2.66063 0.910169 2.95304C1.06953 3.24545 1.29948 3.49337 1.5791 3.67423L0.0426667 7.76563C0.032804 7.80367 0.0265123 7.84254 0.0238733 7.88175C0.0121656 7.92032 0.00417148 7.95991 0 8C0 8.00619 0.00179336 8.01188 0.00183336 8.01807C0.00203336 8.02685 0.00383331 8.03495 0.00443331 8.0437C0.0148134 8.74292 0.299864 9.40999 0.798001 9.90079C1.29614 10.3916 1.96737 10.6667 2.66667 10.6667C3.36597 10.6667 4.0372 10.3916 4.53533 9.90079C5.03347 9.40999 5.31852 8.74292 5.3289 8.0437C5.32947 8.03495 5.3313 8.02685 5.3315 8.01807C5.33154 8.01188 5.33333 8.00619 5.33333 8C5.32917 7.95991 5.32119 7.92032 5.30949 7.88175C5.30685 7.84254 5.30056 7.80367 5.29069 7.76563L3.75244 3.66947C4.03495 3.48918 4.26743 3.24056 4.42839 2.94661C4.48656 2.85613 4.56758 2.7826 4.66326 2.73345C4.75894 2.6843 4.8659 2.66126 4.97333 2.66667H6.66667V12H4.66667C4.48986 12 4.32029 12.0702 4.19526 12.1953C4.07024 12.3203 4 12.4899 4 12.6667C4 12.8435 4.07024 13.013 4.19526 13.1381C4.32029 13.2631 4.48986 13.3333 4.66667 13.3333H10C10.1768 13.3333 10.3464 13.2631 10.4714 13.1381C10.5964 13.013 10.6667 12.8435 10.6667 12.6667C10.6667 12.4899 10.5964 12.3203 10.4714 12.1953C10.3464 12.0702 10.1768 12 10 12H8V2.66667H9.69333C9.80076 2.66126 9.90771 2.6843 10.0034 2.73346C10.0991 2.78261 10.1801 2.85614 10.2383 2.94661C10.3992 3.24056 10.6317 3.48918 10.9142 3.66947L9.376 7.76563C9.36614 7.80367 9.35985 7.84254 9.35721 7.88175C9.3455 7.92032 9.33751 7.95991 9.33333 8C9.33333 8.00619 9.33513 8.01188 9.33517 8.01807C9.33537 8.02685 9.33717 8.03495 9.33777 8.0437C9.34815 8.74292 9.6332 9.40999 10.1313 9.90079C10.6295 10.3916 11.3007 10.6667 12 10.6667C12.6993 10.6667 13.3705 10.3916 13.8687 9.90079C14.3668 9.40999 14.6519 8.74292 14.6622 8.0437C14.6628 8.03495 14.6646 8.02685 14.6648 8.01807C14.6649 8.01188 14.6667 8.00619 14.6667 8C14.6625 7.95991 14.6545 7.92032 14.6428 7.88175ZM2.66667 4.57035L3.70427 7.33333H1.62907L2.66667 4.57035ZM3.81511 8.66667C3.69745 8.86742 3.52986 9.03431 3.32862 9.15113C3.12738 9.26795 2.89934 9.33072 2.66667 9.33333C2.43269 9.33325 2.20285 9.2716 2.00024 9.15458C1.79763 9.03756 1.62937 8.86929 1.51237 8.66667H3.81511ZM12 4.57035L13.0376 7.33333H10.9624L12 4.57035ZM12 9.33333C11.766 9.33325 11.5362 9.2716 11.3336 9.15458C11.131 9.03756 10.9627 8.86929 10.8457 8.66667H13.1484C13.0308 8.86742 12.8632 9.03431 12.662 9.15113C12.4607 9.26795 12.2327 9.33072 12 9.33333Z" fill="#FF9B29"/>
</svg>
