<svg width="20" height="20" viewBox="0 0 20 20" fill="none" xmlns="http://www.w3.org/2000/svg">
<path d="M12.266 7.3263L8.69102 10.9096L7.31602 9.53464C7.24131 9.4474 7.14938 9.37655 7.04599 9.32653C6.94261 9.27651 6.83 9.2484 6.71523 9.24397C6.60046 9.23954 6.48602 9.25888 6.37908 9.30077C6.27215 9.34267 6.17502 9.40621 6.09381 9.48743C6.0126 9.56864 5.94905 9.66576 5.90715 9.7727C5.86526 9.87964 5.84592 9.99408 5.85035 10.1088C5.85479 10.2236 5.8829 10.3362 5.93291 10.4396C5.98293 10.543 6.05378 10.6349 6.14102 10.7096L8.09935 12.6763C8.17722 12.7535 8.26957 12.8146 8.3711 12.8561C8.47263 12.8976 8.58135 12.9186 8.69102 12.918C8.90964 12.917 9.11914 12.8303 9.27435 12.6763L13.441 8.50964C13.5191 8.43217 13.5811 8.34 13.6234 8.23845C13.6657 8.1369 13.6875 8.02798 13.6875 7.91797C13.6875 7.80796 13.6657 7.69904 13.6234 7.59749C13.5811 7.49594 13.5191 7.40377 13.441 7.3263C13.2849 7.17109 13.0737 7.08398 12.8535 7.08398C12.6334 7.08398 12.4222 7.17109 12.266 7.3263ZM9.99935 1.66797C8.35118 1.66797 6.74001 2.15671 5.3696 3.07239C3.99919 3.98807 2.93109 5.28956 2.30036 6.81227C1.66963 8.33499 1.5046 10.0105 1.82614 11.6271C2.14769 13.2436 2.94136 14.7284 4.1068 15.8939C5.27223 17.0593 6.75709 17.853 8.3736 18.1745C9.99011 18.4961 11.6657 18.331 13.1884 17.7003C14.7111 17.0696 16.0126 16.0015 16.9283 14.6311C17.8439 13.2606 18.3327 11.6495 18.3327 10.0013C18.3327 8.90695 18.1171 7.82332 17.6983 6.81227C17.2796 5.80123 16.6657 4.88257 15.8919 4.10875C15.1181 3.33492 14.1994 2.7211 13.1884 2.30231C12.1773 1.88352 11.0937 1.66797 9.99935 1.66797V1.66797ZM9.99935 16.668C8.68081 16.668 7.39188 16.277 6.29555 15.5444C5.19922 14.8119 4.34474 13.7707 3.84016 12.5525C3.33557 11.3344 3.20355 9.99391 3.46078 8.7007C3.71802 7.40749 4.35296 6.21961 5.28531 5.28726C6.21766 4.35491 7.40554 3.71997 8.69875 3.46273C9.99196 3.2055 11.3324 3.33752 12.5506 3.84211C13.7687 4.34669 14.8099 5.20117 15.5425 6.2975C16.275 7.39383 16.666 8.68276 16.666 10.0013C16.666 11.7694 15.9636 13.4651 14.7134 14.7153C13.4632 15.9656 11.7675 16.668 9.99935 16.668V16.668Z" fill="#40A372"/>
</svg>
