<svg width="241" height="172" viewBox="0 0 241 172" fill="none" xmlns="http://www.w3.org/2000/svg">
<g filter="url(#filter0_d_9383_5818)">
<path d="M4 12C4 5.37258 9.37258 0 16 0H179C185.627 0 191 5.37258 191 12V32C191 38.6274 185.627 44 179 44H16C9.37259 44 4 38.6274 4 32V12Z" fill="white" shape-rendering="crispEdges"/>
<path d="M8 12C8 7.58172 11.5817 4 16 4H36C40.4183 4 44 7.58172 44 12V32C44 36.4183 40.4183 40 36 40H16C11.5817 40 8 36.4183 8 32V12Z" fill="#779DEF"/>
<path d="M25.29 25.29C25.247 25.3375 25.2069 25.3876 25.17 25.44C25.1322 25.4957 25.1019 25.5563 25.08 25.62C25.0512 25.6767 25.031 25.7374 25.02 25.8C25.0151 25.8666 25.0151 25.9334 25.02 26C25.0166 26.1312 25.044 26.2613 25.1 26.38C25.1449 26.5041 25.2166 26.6168 25.3099 26.7101C25.4032 26.8034 25.5159 26.8751 25.64 26.92C25.7597 26.9729 25.8891 27.0002 26.02 27.0002C26.1509 27.0002 26.2803 26.9729 26.4 26.92C26.5241 26.8751 26.6368 26.8034 26.7301 26.7101C26.8234 26.6168 26.8951 26.5041 26.94 26.38C26.9844 26.2584 27.0048 26.1294 27 26C27.0008 25.8684 26.9755 25.7379 26.9258 25.6161C26.876 25.4943 26.8027 25.3834 26.71 25.29C26.617 25.1963 26.5064 25.1219 26.3846 25.0711C26.2627 25.0203 26.132 24.9942 26 24.9942C25.868 24.9942 25.7373 25.0203 25.6154 25.0711C25.4936 25.1219 25.383 25.1963 25.29 25.29ZM26 12C24.0222 12 22.0888 12.5865 20.4443 13.6853C18.7998 14.7841 17.5181 16.3459 16.7612 18.1732C16.0043 20.0004 15.8063 22.0111 16.1922 23.9509C16.578 25.8907 17.5304 27.6725 18.9289 29.0711C20.3275 30.4696 22.1093 31.422 24.0491 31.8079C25.9889 32.1937 27.9996 31.9957 29.8268 31.2388C31.6541 30.4819 33.2159 29.2002 34.3147 27.5557C35.4135 25.9112 36 23.9778 36 22C36 20.6868 35.7413 19.3864 35.2388 18.1732C34.7363 16.9599 33.9997 15.8575 33.0711 14.9289C32.1425 14.0003 31.0401 13.2638 29.8268 12.7612C28.6136 12.2587 27.3132 12 26 12ZM26 30C24.4178 30 22.871 29.5308 21.5554 28.6518C20.2398 27.7727 19.2145 26.5233 18.609 25.0615C18.0035 23.5997 17.845 21.9911 18.1537 20.4393C18.4624 18.8874 19.2243 17.462 20.3432 16.3431C21.462 15.2243 22.8874 14.4624 24.4393 14.1537C25.9911 13.845 27.5997 14.0035 29.0615 14.609C30.5233 15.2145 31.7727 16.2398 32.6518 17.5554C33.5308 18.871 34 20.4177 34 22C34 24.1217 33.1572 26.1566 31.6569 27.6569C30.1566 29.1571 28.1217 30 26 30ZM26 17C25.4731 16.9997 24.9553 17.1381 24.4989 17.4014C24.0425 17.6648 23.6635 18.0437 23.4 18.5C23.3277 18.6138 23.2791 18.7411 23.2572 18.8742C23.2353 19.0073 23.2405 19.1434 23.2726 19.2744C23.3047 19.4054 23.363 19.5285 23.4439 19.6364C23.5248 19.7443 23.6267 19.8348 23.7435 19.9022C23.8602 19.9697 23.9895 20.0129 24.1233 20.0292C24.2572 20.0454 24.393 20.0345 24.5225 19.9969C24.6521 19.9593 24.7727 19.8959 24.8771 19.8105C24.9814 19.7251 25.0675 19.6195 25.13 19.5C25.2181 19.3474 25.345 19.2208 25.4978 19.133C25.6505 19.0452 25.8238 18.9993 26 19C26.2652 19 26.5196 19.1054 26.7071 19.2929C26.8946 19.4804 27 19.7348 27 20C27 20.2652 26.8946 20.5196 26.7071 20.7071C26.5196 20.8946 26.2652 21 26 21C25.7348 21 25.4804 21.1054 25.2929 21.2929C25.1054 21.4804 25 21.7348 25 22V23C25 23.2652 25.1054 23.5196 25.2929 23.7071C25.4804 23.8946 25.7348 24 26 24C26.2652 24 26.5196 23.8946 26.7071 23.7071C26.8946 23.5196 27 23.2652 27 23V22.82C27.6614 22.58 28.2174 22.1152 28.5708 21.5069C28.9242 20.8985 29.0525 20.1853 28.9334 19.4919C28.8143 18.7985 28.4552 18.169 27.919 17.7135C27.3828 17.258 26.7035 17.0055 26 17Z" fill="white"/>
<path d="M115.638 12.5H57.3625C56.0577 12.5 55 13.8431 55 15.5C55 17.1569 56.0577 18.5 57.3625 18.5H115.638C116.942 18.5 118 17.1569 118 15.5C118 13.8431 116.942 12.5 115.638 12.5Z" fill="#B9C6E2"/>
<path d="M142.632 25.5H57.3684C56.0604 25.5 55 26.8431 55 28.5C55 30.1569 56.0604 31.5 57.3684 31.5H142.632C143.94 31.5 145 30.1569 145 28.5C145 26.8431 143.94 25.5 142.632 25.5Z" fill="#DAE0EE"/>
</g>
<g filter="url(#filter1_d_9383_5818)">
<path d="M44 72C44 65.3726 49.3726 60 56 60H225C231.627 60 237 65.3726 237 72V92C237 98.6274 231.627 104 225 104H56C49.3726 104 44 98.6274 44 92V72Z" fill="white"/>
<path d="M48 72C48 67.5817 51.5817 64 56 64H76C80.4183 64 84 67.5817 84 72V92C84 96.4183 80.4183 100 76 100H56C51.5817 100 48 96.4183 48 92V72Z" fill="#779DEF"/>
<path d="M65.29 85.29C65.247 85.3375 65.2069 85.3876 65.17 85.44C65.1322 85.4957 65.1019 85.5563 65.08 85.62C65.0512 85.6767 65.031 85.7374 65.02 85.8C65.0151 85.8666 65.0151 85.9334 65.02 86C65.0166 86.1312 65.044 86.2613 65.1 86.38C65.1449 86.5041 65.2166 86.6168 65.3099 86.7101C65.4032 86.8034 65.5159 86.8751 65.64 86.92C65.7597 86.9729 65.8891 87.0002 66.02 87.0002C66.1509 87.0002 66.2803 86.9729 66.4 86.92C66.5241 86.8751 66.6368 86.8034 66.7301 86.7101C66.8234 86.6168 66.8951 86.5041 66.94 86.38C66.9844 86.2584 67.0048 86.1294 67 86C67.0008 85.8684 66.9755 85.7379 66.9258 85.6161C66.876 85.4943 66.8027 85.3834 66.71 85.29C66.617 85.1963 66.5064 85.1219 66.3846 85.0711C66.2627 85.0203 66.132 84.9942 66 84.9942C65.868 84.9942 65.7373 85.0203 65.6154 85.0711C65.4936 85.1219 65.383 85.1963 65.29 85.29ZM66 72C64.0222 72 62.0888 72.5865 60.4443 73.6853C58.7998 74.7841 57.5181 76.3459 56.7612 78.1732C56.0043 80.0004 55.8063 82.0111 56.1922 83.9509C56.578 85.8907 57.5304 87.6725 58.9289 89.0711C60.3275 90.4696 62.1093 91.422 64.0491 91.8079C65.9889 92.1937 67.9996 91.9957 69.8268 91.2388C71.6541 90.4819 73.2159 89.2002 74.3147 87.5557C75.4135 85.9112 76 83.9778 76 82C76 80.6868 75.7413 79.3864 75.2388 78.1732C74.7363 76.9599 73.9997 75.8575 73.0711 74.9289C72.1425 74.0003 71.0401 73.2638 69.8268 72.7612C68.6136 72.2587 67.3132 72 66 72ZM66 90C64.4178 90 62.871 89.5308 61.5554 88.6518C60.2398 87.7727 59.2145 86.5233 58.609 85.0615C58.0035 83.5997 57.845 81.9911 58.1537 80.4393C58.4624 78.8874 59.2243 77.462 60.3432 76.3431C61.462 75.2243 62.8874 74.4624 64.4393 74.1537C65.9911 73.845 67.5997 74.0035 69.0615 74.609C70.5233 75.2145 71.7727 76.2398 72.6518 77.5554C73.5308 78.871 74 80.4177 74 82C74 84.1217 73.1572 86.1566 71.6569 87.6569C70.1566 89.1571 68.1217 90 66 90ZM66 77C65.4731 76.9997 64.9553 77.1381 64.4989 77.4014C64.0425 77.6648 63.6635 78.0437 63.4 78.5C63.3277 78.6138 63.2791 78.7411 63.2572 78.8742C63.2353 79.0073 63.2405 79.1434 63.2726 79.2744C63.3047 79.4054 63.363 79.5285 63.4439 79.6364C63.5248 79.7443 63.6267 79.8348 63.7435 79.9022C63.8602 79.9697 63.9895 80.0129 64.1233 80.0292C64.2572 80.0454 64.393 80.0345 64.5225 79.9969C64.6521 79.9593 64.7727 79.8959 64.8771 79.8105C64.9814 79.7251 65.0675 79.6195 65.13 79.5C65.2181 79.3474 65.345 79.2208 65.4978 79.133C65.6505 79.0452 65.8238 78.9993 66 79C66.2652 79 66.5196 79.1054 66.7071 79.2929C66.8946 79.4804 67 79.7348 67 80C67 80.2652 66.8946 80.5196 66.7071 80.7071C66.5196 80.8946 66.2652 81 66 81C65.7348 81 65.4804 81.1054 65.2929 81.2929C65.1054 81.4804 65 81.7348 65 82V83C65 83.2652 65.1054 83.5196 65.2929 83.7071C65.4804 83.8946 65.7348 84 66 84C66.2652 84 66.5196 83.8946 66.7071 83.7071C66.8946 83.5196 67 83.2652 67 83V82.82C67.6614 82.58 68.2174 82.1152 68.5708 81.5069C68.9242 80.8985 69.0525 80.1853 68.9334 79.4919C68.8143 78.7985 68.4552 78.169 67.919 77.7135C67.3828 77.258 66.7035 77.0055 66 77Z" fill="white"/>
<path d="M155.638 72.5H97.3625C96.0577 72.5 95 73.8431 95 75.5C95 77.1569 96.0577 78.5 97.3625 78.5H155.638C156.942 78.5 158 77.1569 158 75.5C158 73.8431 156.942 72.5 155.638 72.5Z" fill="#B9C6E2"/>
<path d="M206 85.5H98C96.3431 85.5 95 86.8431 95 88.5C95 90.1569 96.3431 91.5 98 91.5H206C207.657 91.5 209 90.1569 209 88.5C209 86.8431 207.657 85.5 206 85.5Z" fill="#DAE0EE"/>
</g>
<g filter="url(#filter2_d_9383_5818)">
<path d="M4 132C4 125.373 9.37258 120 16 120H179C185.627 120 191 125.373 191 132V152C191 158.627 185.627 164 179 164H16C9.37259 164 4 158.627 4 152V132Z" fill="white" shape-rendering="crispEdges"/>
<path d="M8 132C8 127.582 11.5817 124 16 124H36C40.4183 124 44 127.582 44 132V152C44 156.418 40.4183 160 36 160H16C11.5817 160 8 156.418 8 152V132Z" fill="#779DEF"/>
<path d="M25.29 145.29C25.247 145.338 25.2069 145.388 25.17 145.44C25.1322 145.496 25.1019 145.556 25.08 145.62C25.0512 145.677 25.031 145.737 25.02 145.8C25.0151 145.867 25.0151 145.933 25.02 146C25.0166 146.131 25.044 146.261 25.1 146.38C25.1449 146.504 25.2166 146.617 25.3099 146.71C25.4032 146.803 25.5159 146.875 25.64 146.92C25.7597 146.973 25.8891 147 26.02 147C26.1509 147 26.2803 146.973 26.4 146.92C26.5241 146.875 26.6368 146.803 26.7301 146.71C26.8234 146.617 26.8951 146.504 26.94 146.38C26.9844 146.258 27.0048 146.129 27 146C27.0008 145.868 26.9755 145.738 26.9258 145.616C26.876 145.494 26.8027 145.383 26.71 145.29C26.617 145.196 26.5064 145.122 26.3846 145.071C26.2627 145.02 26.132 144.994 26 144.994C25.868 144.994 25.7373 145.02 25.6154 145.071C25.4936 145.122 25.383 145.196 25.29 145.29ZM26 132C24.0222 132 22.0888 132.586 20.4443 133.685C18.7998 134.784 17.5181 136.346 16.7612 138.173C16.0043 140 15.8063 142.011 16.1922 143.951C16.578 145.891 17.5304 147.673 18.9289 149.071C20.3275 150.47 22.1093 151.422 24.0491 151.808C25.9889 152.194 27.9996 151.996 29.8268 151.239C31.6541 150.482 33.2159 149.2 34.3147 147.556C35.4135 145.911 36 143.978 36 142C36 140.687 35.7413 139.386 35.2388 138.173C34.7363 136.96 33.9997 135.858 33.0711 134.929C32.1425 134 31.0401 133.264 29.8268 132.761C28.6136 132.259 27.3132 132 26 132ZM26 150C24.4178 150 22.871 149.531 21.5554 148.652C20.2398 147.773 19.2145 146.523 18.609 145.061C18.0035 143.6 17.845 141.991 18.1537 140.439C18.4624 138.887 19.2243 137.462 20.3432 136.343C21.462 135.224 22.8874 134.462 24.4393 134.154C25.9911 133.845 27.5997 134.003 29.0615 134.609C30.5233 135.214 31.7727 136.24 32.6518 137.555C33.5308 138.871 34 140.418 34 142C34 144.122 33.1572 146.157 31.6569 147.657C30.1566 149.157 28.1217 150 26 150ZM26 137C25.4731 137 24.9553 137.138 24.4989 137.401C24.0425 137.665 23.6635 138.044 23.4 138.5C23.3277 138.614 23.2791 138.741 23.2572 138.874C23.2353 139.007 23.2405 139.143 23.2726 139.274C23.3047 139.405 23.363 139.529 23.4439 139.636C23.5248 139.744 23.6267 139.835 23.7435 139.902C23.8602 139.97 23.9895 140.013 24.1233 140.029C24.2572 140.045 24.393 140.034 24.5225 139.997C24.6521 139.959 24.7727 139.896 24.8771 139.811C24.9814 139.725 25.0675 139.62 25.13 139.5C25.2181 139.347 25.345 139.221 25.4978 139.133C25.6505 139.045 25.8238 138.999 26 139C26.2652 139 26.5196 139.105 26.7071 139.293C26.8946 139.48 27 139.735 27 140C27 140.265 26.8946 140.52 26.7071 140.707C26.5196 140.895 26.2652 141 26 141C25.7348 141 25.4804 141.105 25.2929 141.293C25.1054 141.48 25 141.735 25 142V143C25 143.265 25.1054 143.52 25.2929 143.707C25.4804 143.895 25.7348 144 26 144C26.2652 144 26.5196 143.895 26.7071 143.707C26.8946 143.52 27 143.265 27 143V142.82C27.6614 142.58 28.2174 142.115 28.5708 141.507C28.9242 140.899 29.0525 140.185 28.9334 139.492C28.8143 138.798 28.4552 138.169 27.919 137.714C27.3828 137.258 26.7035 137.005 26 137Z" fill="white"/>
<path d="M132 132.5H58C56.3431 132.5 55 133.843 55 135.5C55 137.157 56.3431 138.5 58 138.5H132C133.657 138.5 135 137.157 135 135.5C135 133.843 133.657 132.5 132 132.5Z" fill="#B9C6E2"/>
<path d="M166 145.5H58C56.3431 145.5 55 146.843 55 148.5C55 150.157 56.3431 151.5 58 151.5H166C167.657 151.5 169 150.157 169 148.5C169 146.843 167.657 145.5 166 145.5Z" fill="#DAE0EE"/>
</g>
<defs>
<filter id="filter0_d_9383_5818" x="0" y="0" width="195" height="52" filterUnits="userSpaceOnUse" color-interpolation-filters="sRGB">
<feFlood flood-opacity="0" result="BackgroundImageFix"/>
<feColorMatrix in="SourceAlpha" type="matrix" values="0 0 0 0 0 0 0 0 0 0 0 0 0 0 0 0 0 0 127 0" result="hardAlpha"/>
<feOffset dy="4"/>
<feGaussianBlur stdDeviation="2"/>
<feComposite in2="hardAlpha" operator="out"/>
<feColorMatrix type="matrix" values="0 0 0 0 0.115168 0 0 0 0 0.363192 0 0 0 0 0.8984 0 0 0 0.1 0"/>
<feBlend mode="normal" in2="BackgroundImageFix" result="effect1_dropShadow_9383_5818"/>
<feBlend mode="normal" in="SourceGraphic" in2="effect1_dropShadow_9383_5818" result="shape"/>
</filter>
<filter id="filter1_d_9383_5818" x="0" y="60" width="241" height="52" filterUnits="userSpaceOnUse" color-interpolation-filters="sRGB">
<feFlood flood-opacity="0" result="BackgroundImageFix"/>
<feColorMatrix in="SourceAlpha" type="matrix" values="0 0 0 0 0 0 0 0 0 0 0 0 0 0 0 0 0 0 127 0" result="hardAlpha"/>
<feOffset dy="4"/>
<feGaussianBlur stdDeviation="2"/>
<feComposite in2="hardAlpha" operator="out"/>
<feColorMatrix type="matrix" values="0 0 0 0 0.115168 0 0 0 0 0.363192 0 0 0 0 0.8984 0 0 0 0.1 0"/>
<feBlend mode="normal" in2="BackgroundImageFix" result="effect1_dropShadow_9383_5818"/>
<feBlend mode="normal" in="SourceGraphic" in2="effect1_dropShadow_9383_5818" result="shape"/>
</filter>
<filter id="filter2_d_9383_5818" x="0" y="120" width="195" height="52" filterUnits="userSpaceOnUse" color-interpolation-filters="sRGB">
<feFlood flood-opacity="0" result="BackgroundImageFix"/>
<feColorMatrix in="SourceAlpha" type="matrix" values="0 0 0 0 0 0 0 0 0 0 0 0 0 0 0 0 0 0 127 0" result="hardAlpha"/>
<feOffset dy="4"/>
<feGaussianBlur stdDeviation="2"/>
<feComposite in2="hardAlpha" operator="out"/>
<feColorMatrix type="matrix" values="0 0 0 0 0.115168 0 0 0 0 0.363192 0 0 0 0 0.8984 0 0 0 0.1 0"/>
<feBlend mode="normal" in2="BackgroundImageFix" result="effect1_dropShadow_9383_5818"/>
<feBlend mode="normal" in="SourceGraphic" in2="effect1_dropShadow_9383_5818" result="shape"/>
</filter>
</defs>
</svg>
