<svg width="16" height="16" viewBox="0 0 16 16" fill="none" xmlns="http://www.w3.org/2000/svg">
<path d="M11.3333 10.6655H6.27333L11.8067 5.13882C11.9322 5.01329 12.0027 4.84302 12.0027 4.66549C12.0027 4.48795 11.9322 4.31769 11.8067 4.19215C11.6811 4.06662 11.5109 3.99609 11.3333 3.99609C11.1558 3.99609 10.9855 4.06662 10.86 4.19215L5.33333 9.72549V4.66549C5.33333 4.48868 5.2631 4.31911 5.13807 4.19408C5.01305 4.06906 4.84348 3.99882 4.66667 3.99882C4.48986 3.99882 4.32029 4.06906 4.19526 4.19408C4.07024 4.31911 4 4.48868 4 4.66549V11.3322C4.00105 11.4193 4.01917 11.5053 4.05333 11.5855C4.12098 11.7484 4.25043 11.8778 4.41333 11.9455C4.49348 11.9796 4.57955 11.9978 4.66667 11.9988H11.3333C11.5101 11.9988 11.6797 11.9286 11.8047 11.8036C11.9298 11.6785 12 11.509 12 11.3322C12 11.1553 11.9298 10.9858 11.8047 10.8607C11.6797 10.7357 11.5101 10.6655 11.3333 10.6655Z" fill="#40A372"/>
</svg>
