<svg width="16" height="16" viewBox="0 0 16 16" fill="none" xmlns="http://www.w3.org/2000/svg">
<path d="M11.9463 4.41309L11.4863 4.60938L11.5 4.67285V11.333C11.5 11.3772 11.4824 11.4199 11.4512 11.4512C11.4199 11.4824 11.3772 11.5 11.333 11.5C11.289 11.4999 11.247 11.4822 11.2158 11.4512C11.1846 11.4199 11.167 11.3772 11.167 11.333V5.06543L10.3125 5.91992L4.78613 11.4531L4.78516 11.4541C4.76966 11.4697 4.75078 11.4828 4.73047 11.4912C4.71035 11.4996 4.68877 11.5039 4.66699 11.5039C4.64501 11.5039 4.62283 11.4997 4.60254 11.4912C4.58223 11.4828 4.56335 11.4697 4.54785 11.4541L4.54492 11.4521L4.50879 11.3975C4.50033 11.3772 4.49609 11.355 4.49609 11.333C4.49614 11.3112 4.50045 11.2897 4.50879 11.2695C4.51722 11.2493 4.52937 11.2303 4.54492 11.2148L4.54688 11.2139L10.0801 5.6875L10.9346 4.83301H4.66699C4.62279 4.83301 4.58008 4.81544 4.54883 4.78418C4.51774 4.75301 4.50009 4.71101 4.5 4.66699C4.5 4.62279 4.51757 4.58008 4.54883 4.54883C4.58008 4.51758 4.6228 4.5 4.66699 4.5H11.3271L11.3906 4.51367L11.3945 4.51465C11.4353 4.53156 11.4675 4.56474 11.4844 4.60547L11.9463 4.41309Z" stroke="white"/>
</svg>
