<svg width="23" height="20" viewBox="0 0 23 20" fill="none" xmlns="http://www.w3.org/2000/svg">
<path d="M19.25 8.25C18.9848 8.25 18.7304 8.35536 18.5429 8.54289C18.3554 8.73043 18.25 8.98478 18.25 9.25V16.25C18.25 16.5152 18.1446 16.7696 17.9571 16.9571C17.7696 17.1446 17.5152 17.25 17.25 17.25H3.25C2.98478 17.25 2.73043 17.1446 2.54289 16.9571C2.35536 16.7696 2.25 16.5152 2.25 16.25V8.25C2.25 7.98478 2.35536 7.73043 2.54289 7.54289C2.73043 7.35536 2.98478 7.25 3.25 7.25H5.25C5.46807 7.26138 5.68386 7.20107 5.86443 7.07829C6.045 6.9555 6.18042 6.77698 6.25 6.57L6.79 4.93C6.85709 4.73138 6.9849 4.55887 7.15537 4.43684C7.32584 4.31482 7.53036 4.24946 7.74 4.25H13.25C13.5152 4.25 13.7696 4.14464 13.9571 3.95711C14.1446 3.76957 14.25 3.51522 14.25 3.25C14.25 2.98478 14.1446 2.73043 13.9571 2.54289C13.7696 2.35536 13.5152 2.25 13.25 2.25H7.69C7.06155 2.25118 6.44933 2.44968 5.93977 2.81751C5.4302 3.18533 5.04901 3.70389 4.85 4.3L4.53 5.3H3.25C2.45435 5.3 1.69129 5.61607 1.12868 6.17868C0.56607 6.74129 0.25 7.50435 0.25 8.3V16.3C0.25 17.0956 0.56607 17.8587 1.12868 18.4213C1.69129 18.9839 2.45435 19.3 3.25 19.3H17.25C18.0456 19.3 18.8087 18.9839 19.3713 18.4213C19.9339 17.8587 20.25 17.0956 20.25 16.3V9.3C20.2568 9.16453 20.2359 9.0291 20.1887 8.90194C20.1415 8.77479 20.0689 8.65856 19.9754 8.56034C19.8818 8.46212 19.7693 8.38396 19.6446 8.33061C19.5199 8.27726 19.3856 8.24983 19.25 8.25ZM10.25 7.25C9.45887 7.25 8.68552 7.4846 8.02772 7.92412C7.36992 8.36365 6.85723 8.98836 6.55448 9.71927C6.25173 10.4502 6.17252 11.2544 6.32686 12.0304C6.4812 12.8063 6.86216 13.519 7.42157 14.0784C7.98098 14.6378 8.69372 15.0188 9.46964 15.1731C10.2456 15.3275 11.0498 15.2483 11.7807 14.9455C12.5116 14.6428 13.1364 14.1301 13.5759 13.4723C14.0154 12.8145 14.25 12.0411 14.25 11.25C14.25 10.1891 13.8286 9.17172 13.0784 8.42157C12.3283 7.67143 11.3109 7.25 10.25 7.25ZM10.25 13.25C9.85444 13.25 9.46776 13.1327 9.13886 12.9129C8.80996 12.6932 8.55362 12.3808 8.40224 12.0154C8.25087 11.6499 8.21126 11.2478 8.28843 10.8598C8.3656 10.4719 8.55608 10.1155 8.83579 9.83579C9.11549 9.55608 9.47186 9.3656 9.85982 9.28843C10.2478 9.21126 10.6499 9.25087 11.0154 9.40224C11.3808 9.55362 11.6932 9.80996 11.9129 10.1389C12.1327 10.4678 12.25 10.8544 12.25 11.25C12.25 11.7804 12.0393 12.2891 11.6642 12.6642C11.2891 13.0393 10.7804 13.25 10.25 13.25ZM21.25 2.25H20.25V1.25C20.25 0.984784 20.1446 0.73043 19.9571 0.542893C19.7696 0.355357 19.5152 0.25 19.25 0.25C18.9848 0.25 18.7304 0.355357 18.5429 0.542893C18.3554 0.73043 18.25 0.984784 18.25 1.25V2.25H17.25C16.9848 2.25 16.7304 2.35536 16.5429 2.54289C16.3554 2.73043 16.25 2.98478 16.25 3.25C16.25 3.51522 16.3554 3.76957 16.5429 3.95711C16.7304 4.14464 16.9848 4.25 17.25 4.25H18.25V5.25C18.25 5.51522 18.3554 5.76957 18.5429 5.95711C18.7304 6.14464 18.9848 6.25 19.25 6.25C19.5152 6.25 19.7696 6.14464 19.9571 5.95711C20.1446 5.76957 20.25 5.51522 20.25 5.25V4.25H21.25C21.5152 4.25 21.7696 4.14464 21.9571 3.95711C22.1446 3.76957 22.25 3.51522 22.25 3.25C22.25 2.98478 22.1446 2.73043 21.9571 2.54289C21.7696 2.35536 21.5152 2.25 21.25 2.25Z" fill="#151E2F" stroke="#FBFCFF" stroke-width="0.5"/>
</svg>
