<svg width="16" height="16" viewBox="0 0 16 16" fill="none" xmlns="http://www.w3.org/2000/svg">
<path d="M3.69332 13.0117C3.28666 13.0117 2.90666 12.8717 2.63332 12.6117C2.28666 12.2851 2.11999 11.7917 2.17999 11.2584L2.42666 9.0984C2.47332 8.69174 2.71999 8.15174 3.00666 7.85841L8.47999 2.06507C9.84666 0.618405 11.2733 0.578405 12.72 1.94507C14.1667 3.31174 14.2067 4.7384 12.84 6.18507L7.36666 11.9784C7.08666 12.2784 6.56666 12.5584 6.15999 12.6251L4.01332 12.9917C3.89999 12.9984 3.79999 13.0117 3.69332 13.0117ZM10.62 1.93841C10.1067 1.93841 9.65999 2.25841 9.20666 2.73841L3.73332 8.53841C3.59999 8.67841 3.44666 9.01174 3.41999 9.20507L3.17332 11.3651C3.14666 11.5851 3.19999 11.7651 3.31999 11.8784C3.43999 11.9917 3.61999 12.0317 3.83999 11.9984L5.98666 11.6317C6.17999 11.5984 6.49999 11.4251 6.63332 11.2851L12.1067 5.49174C12.9333 4.61174 13.2333 3.7984 12.0267 2.66507C11.4933 2.15174 11.0333 1.93841 10.62 1.93841Z" fill="#1D5DE5"/>
<path d="M11.56 7.29925C11.5466 7.29925 11.5266 7.29925 11.5133 7.29925C9.4333 7.09258 7.75996 5.51258 7.43996 3.44592C7.39996 3.17258 7.58663 2.91925 7.85996 2.87258C8.1333 2.83258 8.38663 3.01925 8.4333 3.29258C8.68663 4.90592 9.9933 6.14592 11.62 6.30591C11.8933 6.33258 12.0933 6.57925 12.0666 6.85258C12.0333 7.10591 11.8133 7.29925 11.56 7.29925Z" fill="#1D5DE5"/>
<path d="M14 15.168H2C1.72667 15.168 1.5 14.9413 1.5 14.668C1.5 14.3946 1.72667 14.168 2 14.168H14C14.2733 14.168 14.5 14.3946 14.5 14.668C14.5 14.9413 14.2733 15.168 14 15.168Z" fill="#1D5DE5"/>
</svg>
