<svg width="12" height="18" viewBox="0 0 12 18" fill="none" xmlns="http://www.w3.org/2000/svg">
<g style="mix-blend-mode:plus-darker">
<path d="M0 8.69238V7.00732C0 6.83577 0.0608724 6.68913 0.182617 6.56738C0.304362 6.44564 0.451009 6.38477 0.622559 6.38477C0.799642 6.38477 0.949056 6.44564 1.0708 6.56738C1.19255 6.68913 1.25342 6.83577 1.25342 7.00732V8.64258C1.25342 9.58333 1.4471 10.4079 1.83447 11.1162C2.22184 11.8245 2.76693 12.3752 3.46973 12.7681C4.17253 13.1554 4.99707 13.3491 5.94336 13.3491C6.88965 13.3491 7.71143 13.1554 8.40869 12.7681C9.11149 12.3752 9.65658 11.8245 10.0439 11.1162C10.4313 10.4079 10.625 9.58333 10.625 8.64258V7.00732C10.625 6.83577 10.6859 6.68913 10.8076 6.56738C10.9294 6.44564 11.0788 6.38477 11.2559 6.38477C11.4274 6.38477 11.5741 6.44564 11.6958 6.56738C11.8175 6.68913 11.8784 6.83577 11.8784 7.00732V8.69238C11.8784 9.77702 11.6543 10.7399 11.2061 11.5811C10.7633 12.4222 10.1436 13.0973 9.34668 13.6064C8.5498 14.11 7.62288 14.4061 6.56592 14.4946V16.4287H9.64551C9.82259 16.4287 9.97201 16.4896 10.0938 16.6113C10.2155 16.7331 10.2764 16.8825 10.2764 17.0596C10.2764 17.2311 10.2155 17.3778 10.0938 17.4995C9.97201 17.6213 9.82259 17.6821 9.64551 17.6821H2.23291C2.05583 17.6821 1.90641 17.6213 1.78467 17.4995C1.66292 17.3778 1.60205 17.2311 1.60205 17.0596C1.60205 16.8825 1.66292 16.7331 1.78467 16.6113C1.90641 16.4896 2.05583 16.4287 2.23291 16.4287H5.3125V14.4946C4.25553 14.4061 3.32861 14.11 2.53174 13.6064C1.73486 13.0973 1.1123 12.4222 0.664062 11.5811C0.221354 10.7399 0 9.77702 0 8.69238ZM5.94336 11.5645C5.38997 11.5645 4.90576 11.4372 4.49072 11.1826C4.07568 10.9281 3.75195 10.5767 3.51953 10.1284C3.28711 9.67464 3.1709 9.15169 3.1709 8.55957V3.00635C3.1709 2.41423 3.28711 1.89404 3.51953 1.4458C3.75195 0.992025 4.07568 0.637858 4.49072 0.383301C4.90576 0.128743 5.38997 0.00146484 5.94336 0.00146484C6.49121 0.00146484 6.97266 0.128743 7.3877 0.383301C7.80827 0.637858 8.132 0.992025 8.35889 1.4458C8.59131 1.89404 8.70752 2.41423 8.70752 3.00635V8.55957C8.70752 9.15169 8.59131 9.67464 8.35889 10.1284C8.132 10.5767 7.80827 10.9281 7.3877 11.1826C6.97266 11.4372 6.49121 11.5645 5.94336 11.5645Z" fill="#717F9A"/>
</g>
</svg>
