<svg width="17" height="17" viewBox="0 0 17 17" fill="none" xmlns="http://www.w3.org/2000/svg">
<g style="mix-blend-mode:plus-darker">
<path d="M0 6.62598C0 5.71289 0.171549 4.85791 0.514648 4.06104C0.857747 3.25863 1.33366 2.55306 1.94238 1.94434C2.55111 1.33561 3.25391 0.859701 4.05078 0.516602C4.85319 0.173503 5.71094 0.00195312 6.62402 0.00195312C7.53711 0.00195312 8.39209 0.173503 9.18896 0.516602C9.99137 0.859701 10.6969 1.33561 11.3057 1.94434C11.9144 2.55306 12.3903 3.25863 12.7334 4.06104C13.0765 4.85791 13.248 5.71289 13.248 6.62598C13.248 7.38411 13.1263 8.10352 12.8828 8.78418C12.6449 9.46484 12.3128 10.0819 11.8867 10.6353L15.9458 14.7192C16.0343 14.8078 16.1007 14.9102 16.145 15.0264C16.1948 15.1426 16.2197 15.2671 16.2197 15.3999C16.2197 15.5825 16.1782 15.7485 16.0952 15.8979C16.0177 16.0474 15.9071 16.1636 15.7632 16.2466C15.6193 16.3351 15.4533 16.3794 15.2651 16.3794C15.1323 16.3794 15.005 16.3545 14.8833 16.3047C14.7671 16.2604 14.6592 16.1912 14.5596 16.0972L10.4756 12.0049C9.93327 12.3923 9.33561 12.6966 8.68262 12.918C8.02962 13.1393 7.34342 13.25 6.62402 13.25C5.71094 13.25 4.85319 13.0785 4.05078 12.7354C3.25391 12.3923 2.55111 11.9163 1.94238 11.3076C1.33366 10.6989 0.857747 9.99609 0.514648 9.19922C0.171549 8.39681 0 7.53906 0 6.62598ZM1.41943 6.62598C1.41943 7.34538 1.55225 8.02051 1.81787 8.65137C2.08903 9.27669 2.46257 9.82731 2.93848 10.3032C3.41992 10.7791 3.97331 11.1527 4.59863 11.4238C5.22949 11.695 5.90462 11.8306 6.62402 11.8306C7.34342 11.8306 8.01579 11.695 8.64111 11.4238C9.27197 11.1527 9.82536 10.7791 10.3013 10.3032C10.7772 9.82731 11.1507 9.27669 11.4219 8.65137C11.693 8.02051 11.8286 7.34538 11.8286 6.62598C11.8286 5.90658 11.693 5.23421 11.4219 4.60889C11.1507 3.97803 10.7772 3.42464 10.3013 2.94873C9.82536 2.46729 9.27197 2.09375 8.64111 1.82812C8.01579 1.55697 7.34342 1.42139 6.62402 1.42139C5.90462 1.42139 5.22949 1.55697 4.59863 1.82812C3.97331 2.09375 3.41992 2.46729 2.93848 2.94873C2.46257 3.42464 2.08903 3.97803 1.81787 4.60889C1.55225 5.23421 1.41943 5.90658 1.41943 6.62598Z" fill="#717F9A"/>
</g>
</svg>
