<svg width="24" height="24" viewBox="0 0 24 24" fill="none" xmlns="http://www.w3.org/2000/svg">
<path d="M10.5 19C10.5 18.8674 10.5527 18.7403 10.6465 18.6465C10.7403 18.5527 10.8674 18.5 11 18.5H21C21.1326 18.5 21.2597 18.5527 21.3535 18.6465C21.4473 18.7403 21.5 18.8674 21.5 19C21.5 19.1326 21.4473 19.2597 21.3535 19.3535C21.2597 19.4473 21.1326 19.5 21 19.5H11C10.8674 19.5 10.7403 19.4473 10.6465 19.3535C10.5527 19.2597 10.5 19.1326 10.5 19ZM18.5 12C18.5 11.8674 18.5527 11.7403 18.6465 11.6465C18.7403 11.5527 18.8674 11.5 19 11.5H21C21.1326 11.5 21.2597 11.5527 21.3535 11.6465C21.4473 11.7403 21.5 11.8674 21.5 12C21.5 12.1326 21.4473 12.2597 21.3535 12.3535C21.2597 12.4473 21.1326 12.5 21 12.5H19C18.8674 12.5 18.7403 12.4473 18.6465 12.3535C18.5527 12.2597 18.5 12.1326 18.5 12ZM14.5 5C14.5 4.86739 14.5527 4.74025 14.6465 4.64648C14.7403 4.55272 14.8674 4.5 15 4.5H21C21.1326 4.5 21.2597 4.55272 21.3535 4.64648C21.4473 4.74025 21.5 4.86739 21.5 5C21.5 5.13261 21.4473 5.25975 21.3535 5.35352C21.2597 5.44728 21.1326 5.5 21 5.5H15C14.8674 5.5 14.7403 5.44728 14.6465 5.35352C14.5527 5.25975 14.5 5.13261 14.5 5ZM2.5 12C2.5 11.8674 2.55272 11.7403 2.64648 11.6465C2.74025 11.5527 2.86739 11.5 3 11.5H14.5V10C14.5 9.86739 14.5527 9.74025 14.6465 9.64648C14.7403 9.55272 14.8674 9.5 15 9.5C15.1326 9.5 15.2597 9.55272 15.3535 9.64648C15.4473 9.74025 15.5 9.86739 15.5 10V14C15.5 14.1326 15.4473 14.2597 15.3535 14.3535C15.2597 14.4473 15.1326 14.5 15 14.5C14.8674 14.5 14.7403 14.4473 14.6465 14.3535C14.5527 14.2597 14.5 14.1326 14.5 14V12.5H3C2.86739 12.5 2.74025 12.4473 2.64648 12.3535C2.57608 12.2831 2.52894 12.1939 2.50977 12.0977L2.5 12ZM2.5 5C2.5 4.86739 2.55272 4.74025 2.64648 4.64648C2.74025 4.55272 2.86739 4.5 3 4.5H10.5V3C10.5 2.86739 10.5527 2.74025 10.6465 2.64648C10.7403 2.55272 10.8674 2.5 11 2.5C11.1326 2.5 11.2597 2.55272 11.3535 2.64648C11.4473 2.74025 11.5 2.86739 11.5 3V7C11.5 7.13261 11.4473 7.25975 11.3535 7.35352C11.2597 7.44728 11.1326 7.5 11 7.5C10.8674 7.5 10.7403 7.44728 10.6465 7.35352C10.5527 7.25975 10.5 7.13261 10.5 7V5.5H3C2.86739 5.5 2.74025 5.44728 2.64648 5.35352C2.55272 5.25975 2.5 5.13261 2.5 5ZM2.5 19C2.5 18.8674 2.55272 18.7403 2.64648 18.6465C2.74025 18.5527 2.86739 18.5 3 18.5H6.5V17C6.5 16.8674 6.55272 16.7403 6.64648 16.6465C6.74025 16.5527 6.86739 16.5 7 16.5C7.13261 16.5 7.25975 16.5527 7.35352 16.6465C7.44728 16.7403 7.5 16.8674 7.5 17V21C7.5 21.1326 7.44728 21.2597 7.35352 21.3535C7.25975 21.4473 7.13261 21.5 7 21.5L6.90234 21.4902C6.80611 21.4711 6.71689 21.4239 6.64648 21.3535C6.55272 21.2597 6.5 21.1326 6.5 21V19.5H3C2.86739 19.5 2.74025 19.4473 2.64648 19.3535C2.57608 19.2831 2.52894 19.1939 2.50977 19.0977L2.5 19Z" fill="white" stroke="white"/>
</svg>
