<svg width="16" height="16" viewBox="0 0 16 16" fill="none" xmlns="http://www.w3.org/2000/svg">
<path d="M5.59277 12.3265V5.55315C5.59277 5.28649 5.67277 5.02649 5.81944 4.80649L7.63944 2.09982C7.92611 1.66649 8.63944 1.35982 9.24611 1.58649C9.89944 1.80649 10.3328 2.53982 10.1928 3.19315L9.84611 5.37315C9.81944 5.57315 9.87277 5.75315 9.98611 5.89315C10.0994 6.01982 10.2661 6.09982 10.4461 6.09982H13.1861C13.7128 6.09982 14.1661 6.31315 14.4328 6.68649C14.6861 7.04649 14.7328 7.51315 14.5661 7.98649L12.9261 12.9798C12.7194 13.8065 11.8194 14.4798 10.9261 14.4798H8.32611C7.87944 14.4798 7.25277 14.3265 6.96611 14.0398L6.11277 13.3798C5.78611 13.1332 5.59277 12.7398 5.59277 12.3265Z" fill="#FB8600"/>
<path d="M3.47301 4.25391H2.78634C1.75301 4.25391 1.33301 4.65391 1.33301 5.64057V12.3472C1.33301 13.3339 1.75301 13.7339 2.78634 13.7339H3.47301C4.50634 13.7339 4.92634 13.3339 4.92634 12.3472V5.64057C4.92634 4.65391 4.50634 4.25391 3.47301 4.25391Z" fill="#FB8600"/>
</svg>
