<svg width="32" height="32" viewBox="0 0 32 32" fill="none" xmlns="http://www.w3.org/2000/svg">
<path d="M26.667 17.5733V14.6667C26.667 11.8377 25.5432 9.12458 23.5428 7.12419C21.5424 5.12381 18.8293 4 16.0003 4C13.1713 4 10.4582 5.12381 8.45785 7.12419C6.45747 9.12458 5.33366 11.8377 5.33366 14.6667V17.5733C4.55559 17.8484 3.88166 18.3574 3.40424 19.0306C2.92683 19.7037 2.66931 20.5081 2.66699 21.3333V24C2.66699 25.0609 3.08842 26.0783 3.83857 26.8284C4.58871 27.5786 5.60613 28 6.66699 28H10.667C11.0206 28 11.3598 27.8595 11.6098 27.6095C11.8598 27.3594 12.0003 27.0203 12.0003 26.6667V18.6667C12.0003 18.313 11.8598 17.9739 11.6098 17.7239C11.3598 17.4738 11.0206 17.3333 10.667 17.3333H8.00033V14.6667C8.00033 12.5449 8.84318 10.5101 10.3435 9.00981C11.8438 7.50952 13.8786 6.66667 16.0003 6.66667C18.1221 6.66667 20.1569 7.50952 21.6572 9.00981C23.1575 10.5101 24.0003 12.5449 24.0003 14.6667V17.3333H21.3337C20.98 17.3333 20.6409 17.4738 20.3908 17.7239C20.1408 17.9739 20.0003 18.313 20.0003 18.6667V26.6667C20.0003 27.0203 20.1408 27.3594 20.3908 27.6095C20.6409 27.8595 20.98 28 21.3337 28H25.3337C26.3945 28 27.4119 27.5786 28.1621 26.8284C28.9122 26.0783 29.3337 25.0609 29.3337 24V21.3333C29.3313 20.5081 29.0738 19.7037 28.5964 19.0306C28.119 18.3574 27.4451 17.8484 26.667 17.5733ZM9.33366 20V25.3333H6.66699C6.31337 25.3333 5.97423 25.1929 5.72418 24.9428C5.47413 24.6928 5.33366 24.3536 5.33366 24V21.3333C5.33366 20.9797 5.47413 20.6406 5.72418 20.3905C5.97423 20.1405 6.31337 20 6.66699 20H9.33366ZM26.667 24C26.667 24.3536 26.5265 24.6928 26.2765 24.9428C26.0264 25.1929 25.6873 25.3333 25.3337 25.3333H22.667V20H25.3337C25.6873 20 26.0264 20.1405 26.2765 20.3905C26.5265 20.6406 26.667 20.9797 26.667 21.3333V24Z" fill="#2E3D5B"/>
</svg>
