<svg width="27" height="27" viewBox="0 0 27 27" fill="none" xmlns="http://www.w3.org/2000/svg">
<path d="M18.92 0H7.74667C2.89333 0 0 2.89333 0 7.74667V18.9067C0 23.7733 2.89333 26.6667 7.74667 26.6667H18.9067C23.76 26.6667 26.6533 23.7733 26.6533 18.92V7.74667C26.6667 2.89333 23.7733 0 18.92 0ZM17.8133 16.4C18.2 16.7867 18.2 17.4267 17.8133 17.8133C17.6133 18.0133 17.36 18.1067 17.1067 18.1067C16.8533 18.1067 16.6 18.0133 16.4 17.8133L13.3333 14.7467L10.2667 17.8133C10.0667 18.0133 9.81333 18.1067 9.56 18.1067C9.30667 18.1067 9.05333 18.0133 8.85333 17.8133C8.46667 17.4267 8.46667 16.7867 8.85333 16.4L11.92 13.3333L8.85333 10.2667C8.46667 9.88 8.46667 9.24 8.85333 8.85333C9.24 8.46667 9.88 8.46667 10.2667 8.85333L13.3333 11.92L16.4 8.85333C16.7867 8.46667 17.4267 8.46667 17.8133 8.85333C18.2 9.24 18.2 9.88 17.8133 10.2667L14.7467 13.3333L17.8133 16.4Z" fill="#CF4436"/>
</svg>
