<svg width="139" height="143" viewBox="0 0 139 143" fill="none" xmlns="http://www.w3.org/2000/svg">
<g filter="url(#filter0_d_10588_13771)">
<path d="M78.0048 114.5L77.1409 98.4887C79.7133 95.4284 81.6023 91.9355 82.7756 88.2361C83.5944 85.6664 84.065 82.9871 84.1746 80.2883C88.2234 80.2818 92.2399 79.4619 95.9598 77.8801C101.311 75.601 106.062 71.753 109.447 66.504C113.954 59.5118 115.211 51.3446 113.592 43.81C111.974 36.2755 107.481 29.3478 100.499 24.8284C93.51 20.3089 85.3545 19.0564 77.8308 20.677C70.3071 22.2975 63.3894 26.7976 58.8765 33.7898C55.8399 38.4964 54.2862 43.7325 54.0799 48.9493C52.0813 48.9493 50.0763 49.1494 48.0906 49.5497C44.2997 50.318 40.6056 51.8352 37.2209 54.1337C30.3419 58.7952 25.9966 65.8197 24.546 73.3865C23.089 80.9533 24.5202 89.0947 29.175 95.9837C33.2753 102.053 39.2066 106.152 45.7245 108.038C51.6429 109.749 58.0641 109.639 64.0728 107.528L78.0048 114.5Z" fill="white"/>
</g>
<path d="M33.017 93.3818C25.1387 81.7216 28.1881 65.8778 39.825 57.9881C51.4684 50.0985 67.2894 53.1523 75.1677 64.806C82.0402 74.9748 80.5961 88.3329 72.389 96.8165L72.9241 106.766L64.2851 102.446C53.2671 107.289 40.012 103.725 33.017 93.3818Z" fill="url(#paint0_linear_10588_13771)"/>
<path d="M62.7828 36.315C70.4097 24.487 86.1662 21.091 97.9708 28.7288C109.775 36.3666 113.166 52.1459 105.54 63.9675C98.8862 74.2912 86.0502 78.1843 75.0451 73.9425L66.1095 78.3328L66.7026 68.6806C57.9282 60.4165 56.0134 46.8065 62.7828 36.315Z" fill="url(#paint1_linear_10588_13771)"/>
<path d="M81.4023 60.4018C79.3586 56.1083 82.6981 52.015 85.1093 49.2517C90.7892 42.7243 83.3751 38.6569 80.1709 41.9883C81.9567 43.667 80.5448 46.0881 78.9782 46.5142C76.9409 47.063 74.0462 45.6943 73.7626 42.6017C73.4209 38.9086 76.1222 36.0872 79.7712 35.0994C91.118 32.0391 99.6023 45.0357 89.7834 51.9569C86.6308 54.1779 82.7884 55.5983 81.4023 60.4018Z" fill="white"/>
<path d="M84.1617 64.8754C84.0005 66.5798 82.4983 67.8324 80.7963 67.6774C79.0943 67.516 77.8436 66.0117 77.9983 64.3072C78.1595 62.6027 79.6616 61.3502 81.3636 61.5051C83.0657 61.6601 84.3164 63.1709 84.1617 64.8754Z" fill="white"/>
<path d="M55.4918 90.1808C52.3456 86.617 54.4409 81.7618 55.9947 78.4432C59.663 70.6052 51.4173 68.7394 49.2511 72.8198C51.4237 73.9432 50.7339 76.6613 49.3413 77.5006C47.5361 78.5917 44.3771 78.0688 43.2489 75.1763C41.9079 71.7157 43.7259 68.2616 46.9688 66.3118C57.0391 60.2493 68.7662 70.4051 61.2297 79.7603C58.812 82.7561 55.5047 85.1836 55.4918 90.1808Z" fill="white"/>
<path d="M59.3728 93.7261C59.6887 95.4112 58.5863 97.0253 56.9036 97.3416C55.2209 97.658 53.6092 96.5539 53.2932 94.8688C52.9773 93.1837 54.0798 91.5696 55.7625 91.2533C57.4387 90.9369 59.0569 92.041 59.3728 93.7261Z" fill="white"/>
<defs>
<filter id="filter0_d_10588_13771" x="0" y="0" width="138.268" height="142.5" filterUnits="userSpaceOnUse" color-interpolation-filters="sRGB">
<feFlood flood-opacity="0" result="BackgroundImageFix"/>
<feColorMatrix in="SourceAlpha" type="matrix" values="0 0 0 0 0 0 0 0 0 0 0 0 0 0 0 0 0 0 127 0" result="hardAlpha"/>
<feOffset dy="4"/>
<feGaussianBlur stdDeviation="12"/>
<feComposite in2="hardAlpha" operator="out"/>
<feColorMatrix type="matrix" values="0 0 0 0 0 0 0 0 0 0 0 0 0 0 0 0 0 0 0.05 0"/>
<feBlend mode="normal" in2="BackgroundImageFix" result="effect1_dropShadow_10588_13771"/>
<feBlend mode="normal" in="SourceGraphic" in2="effect1_dropShadow_10588_13771" result="shape"/>
</filter>
<linearGradient id="paint0_linear_10588_13771" x1="67.6732" y1="55.4314" x2="46.8844" y2="97.8324" gradientUnits="userSpaceOnUse">
<stop stop-color="#D8ABFC"/>
<stop offset="1" stop-color="#9F4AFA"/>
</linearGradient>
<linearGradient id="paint1_linear_10588_13771" x1="105.879" y1="19.129" x2="68.5181" y2="72.3303" gradientUnits="userSpaceOnUse">
<stop stop-color="#A9DBFF"/>
<stop offset="1" stop-color="#2495E5"/>
</linearGradient>
</defs>
</svg>
