<svg width="10" height="18" viewBox="0 0 10 18" fill="none" xmlns="http://www.w3.org/2000/svg">
<path d="M9.94141 8.64258C9.94141 8.81185 9.90885 8.9681 9.84375 9.11133C9.77865 9.25456 9.68099 9.39128 9.55078 9.52148L1.94336 16.9629C1.72852 17.1842 1.46159 17.2949 1.14258 17.2949C0.934245 17.2949 0.742188 17.2428 0.566406 17.1387C0.390625 17.041 0.250651 16.9043 0.146484 16.7285C0.0488281 16.5592 0 16.3704 0 16.1621C0 15.8496 0.117188 15.5729 0.351562 15.332L7.20703 8.64258L0.351562 1.95312C0.117188 1.71224 0 1.4388 0 1.13281C0 0.917969 0.0488281 0.725911 0.146484 0.556641C0.250651 0.38737 0.390625 0.253906 0.566406 0.15625C0.742188 0.0520833 0.934245 0 1.14258 0C1.46159 0 1.72852 0.107422 1.94336 0.322266L9.55078 7.76367C9.68099 7.89388 9.77865 8.0306 9.84375 8.17383C9.90885 8.31706 9.94141 8.47331 9.94141 8.64258Z" fill="#1D5DE5"/>
</svg>
