<svg width="48" height="48" viewBox="0 0 48 48" fill="none" xmlns="http://www.w3.org/2000/svg">
<path d="M7 37.5C6.18 37.5 5.5 36.82 5.5 36V14C5.5 5.18 8.18 2.5 17 2.5H31C39.82 2.5 42.5 5.18 42.5 14V34C42.5 34.32 42.5 34.62 42.48 34.94C42.42 35.76 41.68 36.4 40.88 36.34C40.06 36.28 39.42 35.56 39.48 34.74C39.5 34.5 39.5 34.24 39.5 34V14C39.5 6.86 38.16 5.5 31 5.5H17C9.84 5.5 8.5 6.86 8.5 14V36C8.5 36.82 7.82 37.5 7 37.5Z" fill="#47464F"/>
<path d="M34 45.5H14C9.32 45.5 5.5 41.68 5.5 37V35.7C5.5 31.72 8.74 28.5 12.7 28.5H41C41.82 28.5 42.5 29.18 42.5 30V37C42.5 41.68 38.68 45.5 34 45.5ZM12.7 31.5C10.38 31.5 8.5 33.38 8.5 35.7V37C8.5 40.04 10.96 42.5 14 42.5H34C37.04 42.5 39.5 40.04 39.5 37V31.5H12.7Z" fill="#47464F"/>
<path d="M32 15.5H16C15.18 15.5 14.5 14.82 14.5 14C14.5 13.18 15.18 12.5 16 12.5H32C32.82 12.5 33.5 13.18 33.5 14C33.5 14.82 32.82 15.5 32 15.5Z" fill="#47464F"/>
<path d="M26 22.5H16C15.18 22.5 14.5 21.82 14.5 21C14.5 20.18 15.18 19.5 16 19.5H26C26.82 19.5 27.5 20.18 27.5 21C27.5 21.82 26.82 22.5 26 22.5Z" fill="#47464F"/>
</svg>
