<svg width="34" height="41" viewBox="0 0 34 41" fill="none" xmlns="http://www.w3.org/2000/svg">
<path d="M29.98 4.435L18.98 0.315C17.84 -0.105 15.98 -0.105 14.84 0.315L3.84 4.435C1.72 5.235 0 7.715 0 9.975V26.175C0 27.795 1.06 29.935 2.36 30.895L13.36 39.115C15.3 40.575 18.48 40.575 20.42 39.115L31.42 30.895C32.72 29.915 33.78 27.795 33.78 26.175V9.975C33.8 7.715 32.08 5.235 29.98 4.435ZM23.86 15.635L15.26 24.235C14.96 24.535 14.58 24.675 14.2 24.675C13.82 24.675 13.44 24.535 13.14 24.235L9.94 20.995C9.36 20.415 9.36 19.455 9.94 18.875C10.52 18.295 11.48 18.295 12.06 18.875L14.22 21.035L21.76 13.495C22.34 12.915 23.3 12.915 23.88 13.495C24.46 14.075 24.46 15.055 23.86 15.635Z" fill="white"/>
</svg>
