<svg width="19" height="22" viewBox="0 0 19 22" fill="none" xmlns="http://www.w3.org/2000/svg">
<path d="M9.5 11C12.4984 11 14.9286 8.53789 14.9286 5.5C14.9286 2.46211 12.4984 0 9.5 0C6.50156 0 4.07143 2.46211 4.07143 5.5C4.07143 8.53789 6.50156 11 9.5 11ZM13.5629 12.4008L11.5357 20.625L10.1786 14.7812L11.5357 12.375H7.46429L8.82143 14.7812L7.46429 20.625L5.43705 12.4008C2.41317 12.5469 0 15.052 0 18.15V19.9375C0 21.0762 0.91183 22 2.03571 22H16.9643C18.0882 22 19 21.0762 19 19.9375V18.15C19 15.052 16.5868 12.5469 13.5629 12.4008Z" fill="white"/>
</svg>
